
<svg xmlns="http://www.w3.org/2000/svg" viewBox="0 0 55 55">
	<style type="text/css">
		.st0{fill:#E200D1; opacity:.5;}
		.st1{fill:#0900F7; opacity:.5;}
		.st2{fill:#FCCC00; opacity:.5;}
		.st3{fill:#00D307; opacity:.5;}
		.st4{fill:#00BDD6; opacity:.5;}

		.st5{fill:#E200D1;}
		.st6{fill:#0900F7;}
		.st7{fill:#FCCC00;}
		.st8{fill:#00D307;}
		.st9{fill:#00BDD6;}
	</style>

	<path class="st0" d="M21,53H9c-2.8,0-5-2.2-5-5s2.2-5,5-5h7V19c0-2.8,2.2-5,5-5h13c2.8,0,5,2.2,5,5s-2.2,5-5,5h-8v24 C26,50.8,23.8,53,21,53z"/>
	<path class="st1" d="M9,41c-2.8,0-5-2.2-5-5V19c0-2.8,2.2-5,5-5s5,2.2,5,5v17C14,38.8,11.8,41,9,41z"/>
	<path class="st2" d="M46,53H33c-2.8,0-5-2.2-5-5V31c0-2.8,2.2-5,5-5h13c2.8,0,5,2.2,5,5v17C51,50.8,48.8,53,46,53z"/>
	<path class="st3" d="M34,12H9c-2.8,0-5-2.2-5-5s2.2-5,5-5h25c2.8,0,5,2.2,5,5S36.8,12,34,12z"/>
	<path class="st4" d="M45,24c-2.8,0-5-2.2-5-5V7c0-2.8,2.2-5,5-5s5,2.2,5,5v12C50,21.8,47.8,24,45,24z"/>

	<path class="st5" d="M21,50H9c-1.1,0-2-0.9-2-2s0.9-2,2-2h10V19c0-1.1,0.9-2,2-2h13c1.1,0,2,0.9,2,2s-0.9,2-2,2H23v27 C23,49.1,22.1,50,21,50z"/>
	<path class="st6" d="M9,38c-1.1,0-2-0.9-2-2V19c0-1.1,0.9-2,2-2s2,0.9,2,2v17C11,37.1,10.1,38,9,38z"/>
	<path class="st7" d="M46,50H33c-1.1,0-2-0.9-2-2V31c0-1.1,0.9-2,2-2h13c1.1,0,2,0.9,2,2v17C48,49.1,47.1,50,46,50z"/>
	<path class="st8" d="M34,9H9C7.9,9,7,8.1,7,7s0.9-2,2-2h25c1.1,0,2,0.9,2,2S35.1,9,34,9z"/>
	<path class="st9" d="M45,21c-1.1,0-2-0.9-2-2V7c0-1.1,0.9-2,2-2s2,0.9,2,2v12C47,20.1,46.1,21,45,21z"/>

</svg>
