<svg xmlns="http://www.w3.org/2000/svg" width="0" height="0">

	<defs>
		<filter id="galaxy-glow" x="-50%" y="-200%" width="200%" height="500%">
			<feGaussianBlur stdDeviation="5"></feGaussianBlur>
			<feColorMatrix type="saturate" values="1.2"></feColorMatrix>
			<feComposite in="SourceGraphic"></feComposite>
		</filter>
	</defs>

	<svg id="galaxies-logo" viewBox="0 0 394 133" cache="keep">
		<style type="text/css">
			.galaxies-st0{fill:#fff;}
		</style>
		<path class="galaxies-st0" d="M76.4,90.6c-4.8,4.6-10.6,10.6-18.2,8.6c-11.7-3-21.2-10.6-30.8-18.4c-6,4.8-13.7,11.7-21.3,7.8c-2-1.8-5.8-3.8-5-6.8 c3-3.8,6.9-3.8,10.8-7.8c1.8,2,5.8,6,9.6,4c0,0,2-0.8,0.8-2C14.7,68.5,10,58.9,8.7,48.3c0-17,12.9-22.7,24.5-27.5 c6.9-2,20.2-2.3,27.8,0.3c3,0,12.7,5.1,15.5,7.1c0,4.6-8.9,6.6-10.8,9.4c-10.6-6.9-24-10.4-35.7-5.8c-5.8,3-9.6,8.6-9.6,14.4 c0,8.4,6.9,15.4,13.7,21.2c11.4-7.6,21-22.2,37.4-20.3c4,4,2.8,9.6,4,14.6C76.4,72.1,80.4,80.9,76.4,90.6z M66.8,90.6 c0-11.7-1.8-23.2-3.8-33.9l-1.2-2c-9.6,1.3-15.4,11.7-23,16.5C47.6,78.9,57,85.7,66.8,90.6z"/>
		<path class="galaxies-st0" d="M105.8,90.3c-3.3-1.1-7.3,1.1-10.7,0.6c-3.7,2.1-8.6,11.2-12.1,13.9c-3.5,3.1-7.5,2-9.7,1.6c0.9-1.4,1.4-3.5,2.4-5.3 c2.6-2,6.3-8.4,8.2-10.7c-0.5-0.5-2.4-2.9-2.5-3.6c1-1.7,4.3-0.6,5.9-1.4c5.3-6.3,10.1-19.3,11.7-27.4c-0.6-2.7-1.6-5.4,1-7.1 c-0.8-7.1-0.2-14.3-2.5-21c1.5-3.9,5.8-4.3,9.3-5.3c1.2-0.4,2.3,0.5,3.1,0.8c1.5,3.4,0,7.4,0.3,11.1c0.3,5.6-0.2,11.5,1.7,16.6 c1.1,1.8-0.9,3.6-0.2,5.4c1.3,7.1,1.8,19.7,3.4,27c1.3,0,2.3,0,3.3,0.6c0.1,1.5-2,1.2-2.5,2.4c1.1,6.4,4.1,13.1,5.8,19.4 c-1.7-0.7-2.7,1.4-4.1,0.2c-1,0.7-2.9-3.6-4-2.6C109.7,101.3,107.4,97,105.8,90.3z M99.3,85.4c1.6,0.4,6.5,1.6,6.4-0.2L104.3,69 L98,85.2L99.3,85.4z"/>
		<path class="galaxies-st0" d="M138,73.3c1.3,0.8,1.3-1,2.5-1c5.3-3.5,13.6-2.6,17.4-7.8V63c-2.6-2.3-6.5-4.1-8.8-7.4c-1.2-1.3,0.8-2,1.2-3.1 c5.3-1.5,9.8,3.1,14.2,5.1c1.3,0.7,9.1,5.5,9.4,7.3c-0.7,6.3-8.8,7.3-14.6,7.9c-15.9,1.8-17.2,5.8-23.3,9.6c-1.7,2.3-3.5,4.3-5.8,6 c-0.3,1.8-1.7,1.8-3.3,2.3c-1-0.7-2.8-0.8-3.1-2.5c-0.3-2.2,2.3-3.5,3.1-5.5c6.3-13.6,9.1-30.6,5.8-45.3c-1.2-4-3.6-10.8-7.1-13.7 c-0.7-3.1,3.5-4.5,5-6.1c2.2-1,7.9,0.8,8.3,4.3C145.8,37.7,143.5,57.5,138,73.3z"/>
		<path class="galaxies-st0" d="M198.6,94.6c-3.5,0.2-6.5,3.6-9.8,4.5c-2.6,3.3-4,13.6-6.3,17.4c-2.1,4.1-6.3,4.6-8.4,5c0.3-1.7,0-3.8,0.3-5.8 c1.7-2.8,2.8-10.1,3.8-12.9c-0.7-0.3-3.3-1.8-3.6-2.5c0.3-2,3.8-2.2,5-3.5c2.6-7.8,2.5-21.7,1-29.8c-1.5-2.3-3.5-4.5-1.7-6.9 c-3.3-6.3-5.3-13.2-9.9-18.7c0-4.1,3.8-6.1,6.8-8.3c1-0.8,2.3-0.3,3.1-0.3c2.6,2.6,2.6,6.9,4.3,10.3c2.3,5.1,4,10.8,7.6,14.9 c1.7,1.3,0.5,3.6,1.8,5.1c3.8,6.1,8.8,17.7,12.9,24c1.2-0.5,2.2-0.8,3.3-0.7c0.7,1.3-1.5,1.8-1.5,3.1c3.3,5.6,8.6,10.8,12.4,16 c-1.8,0-2,2.3-3.8,1.7c-0.7,1-4-2.3-4.6-1C206.2,103.4,202.6,100.2,198.6,94.6z M190.8,92.3c1.7-0.2,6.6-0.8,6-2.5l-7.3-14.6v17.4 L190.8,92.3z"/>
		<path class="galaxies-st0" d="M251.4,9.9c-4.1,17.2-5.8,36.1-9.3,52.9c6.9,7.8,10.1,17.5,17.9,24c0.5,1.2-0.2,2.2-0.8,3.1c-1.3-0.5-1.3,1.2-1.8,1.8 c-2.8,0.8-5.6,4.6-8.6,1.8c-1.3-3.5-3.5-6.6-5.5-9.6l-2.5-4c-3-4.8-8.6,32.8-9.3,44c1,1,0.5,2.2,0.5,3.3c-2.3,2.8-6,3.3-9.4,4.5 c-1.8,0-2.5-1.5-3.1-2.8c3.3-18.2,6.3-38.2,8.4-57.1c1.5-3.1-4.8-10.4-6.1-12.2c-3.1-4.1-6.1-9.3-9.9-13.1c-0.5-1.2,0.2-3.5,1-4.1 c0.3-0.7,1.5,0,1.3-1c2.5-0.8,4.1-5.8,6.5-4c3.3,2.8,2.8,5,5,7.4c1.3,2,5.3,5.8,6.6,7.9c3.8-13.9,5.3-31.9,7.9-45.5 c-0.8-0.8,0.3-2.2,0.5-3.1c2.6-1.8,5.6-1.5,8.9-2.6c1.2,0.3,2.8,0.8,3.3,2.3C253.2,5.9,252.3,7.9,251.4,9.9z"/>
		<path class="galaxies-st0" d="M256.4,41.4c0.2-4.4,3.5-5.5,3.5-5.5l14.4-6.6c0,0,0,6-0.2,12.2c-0.2,6-4.4,6.9-4.4,6.9l-13.7,4L256.4,41.4z M269.5,52 c-3.8,2.2-9.1,2.4-11.5,6.9c6.4,14.6,8.4,32.3,13.1,48.3c1.8,1.3,3.5,2.9,4.9,4.4c-0.7-1.1,1.5-2,2.2-1.3l0.4,0.7 c0.9,0,1.5,1.3,2.4,0.2l-0.4-0.2c1.1-0.9,2-2.9,3.5-2.2c0.2-2.4-0.2-5.3-0.7-6.6c-1.8-16.2-8-31.2-7.8-47.2 C274.3,52.7,271.9,51.4,269.5,52z"/>
		<path class="galaxies-st0" d="M292.4,16.9c5.9,3.7,12.1,12.8,20.5,10.1c3.5,0.7,2.6,6.4,7.1,6c4.6,1.1,12.8,3.7,17.8,4.4c1.8,2,1.1,5.3,1.6,8.2 c-3.1,1.6-10.8-0.2-14.1-0.5c-5.1-0.5-8.2-1.3-12.4-2.2c-2.2,1.6-1.5,5.1-2.2,7.7c2,4.4,7.9,2.9,11.2,6.2c-0.2,2.2-2.6,4-4,4.8 c-3.5,1.6-9-1.5-10.3,2.7c-0.9,6-1.8,13.4-1.1,20l1.3,0.9c4.9-4.8,8.6-12.1,13.2-17.8c2.2-0.7,4.2-4,6.4-2.2c1.5,3.3-2,6.6-3.3,10.1 c-5.3,9-11.2,18.9-22.5,20.7c-4,0.7-5.5-3.3-7.1-6c-0.5-2-0.5-3.8-1.1-6.2c-0.2-8.8,1.1-16.3,2.7-26.5c0.7-5.5,2.9-10.8,4-16.1 c0-6.4-8.2-7-12.6-10.3c-4-2.6-7.1-4.9-11.7-6.8c-1.1-1.3-1.6-2.9-1.3-4.4c2.6-3.5,5.5-8.1,10.6-7.9L292.4,16.9z"/>
		<path class="galaxies-st0" d="M392.3,72.6c-1,10.8-12.6,17.5-20.2,24.3c-7.6,3.8-19.4,5.6-28,2c-2-2-4.8-5-5.8-7.8c0-2,1.8-3,0-4c1,0,1-1,1.8-1 c-2.8-3.8,2-5.6,1-9.6c-2.8-2.8-7.8-4.8-9.8-9.8c-1.8-4.8,4-8.4,6.9-12.4c5.8-4.8,12.4-6.8,20.2-7.8c-2-4.8-12.6-10.6-2-15.4 c6-6.8,7.9,5.6,12.6,7.8c6,6.6,12.6,10.6,18.5,15.4c-1.2,4-6,5.8-8.8,7.6c-2,0-2-0.8-2-1.8c-10.6-5.8-23-6.8-34.7-3c-1,1.2-1,3,0,4 c3,2.8,5,5.6,8.6,4.8c3.1-4,6.9-4.8,9.8-6.6c0,1.8-2.8,0.8-2.8,2.6c-2,1.2-3.8,3-5.8,4.8c3.8,3.1,9.4,2.2,14.4,1.2 C374.1,69,387.7,63.2,392.3,72.6z M379.7,79.5c-9.6-5-22-1-32.6-2c-1.2,1,0,3,0,4.8c0.8,3.8,3.6,6.8,7.6,7.8c8.8,3.8,18.4,1,25-5 C381.7,83.3,381.7,80.5,379.7,79.5z"/>
	</svg>

	<svg id="icon-undo" viewBox="0 0 13 13">
		<path fill="#333" d="M6.5,1.9C5,1.9,3.6,2.5,2.6,3.5L1,1.9V6h4.1L3.6,4.5c0.7-0.7,1.8-1.2,2.9-1.2c2.3,0,4.1,1.8,4.1,4.1c0,1.2-0.5,2.3-1.4,3.1 l0.9,1c1.1-1,1.9-2.5,1.9-4.1C12,4.3,9.5,1.9,6.5,1.9z"/>
	</svg>

	<svg id="icon-redo" viewBox="0 0 13 13">
		<path fill="#333" d="M1,7.4c0,1.6,0.7,3.1,1.8,4.1l0.9-1C2.9,9.7,2.4,8.6,2.4,7.4c0-2.3,1.8-4.1,4.1-4.1c1.1,0,2.2,0.5,2.9,1.2L7.9,6H12V1.9 l-1.6,1.6c-1-1-2.4-1.6-3.9-1.6C3.5,1.9,1,4.4,1,7.4z"/>
	</svg>

	<svg id="icon-gear" viewBox="0 0 13 13">
		<path fill="#333" d="M10.6,7c0-0.2,0-0.3,0-0.5c0-0.2,0-0.4,0-0.5l1.2-0.9c0.1-0.1,0.1-0.2,0.1-0.3l-1.1-1.9c-0.1-0.1-0.2-0.2-0.3-0.1L9,3.2 C8.7,3,8.4,2.8,8.1,2.7L7.9,1.2C7.8,1.1,7.7,1,7.6,1H5.4C5.3,1,5.2,1.1,5.1,1.2L4.9,2.7C4.6,2.8,4.3,3,4,3.2L2.6,2.7 c-0.1,0-0.3,0-0.3,0.1L1.2,4.7C1.1,4.8,1.2,5,1.3,5.1L2.4,6c0,0.2-0.1,0.4-0.1,0.5s0,0.4,0,0.5L1.3,7.9C1.2,8,1.1,8.2,1.2,8.3 l1.1,1.9c0.1,0.1,0.2,0.2,0.3,0.1L4,9.8c0.3,0.2,0.6,0.4,0.9,0.5l0.2,1.5c0,0.1,0.1,0.2,0.3,0.2h2.2c0.1,0,0.3-0.1,0.3-0.2l0.2-1.5 C8.4,10.2,8.7,10,9,9.8l1.4,0.5c0.1,0,0.3,0,0.3-0.1l1.1-1.9c0.1-0.1,0-0.3-0.1-0.3L10.6,7z M6.5,8.9c-1.3,0-2.4-1.1-2.4-2.4 s1.1-2.4,2.4-2.4s2.4,1.1,2.4,2.4S7.8,8.9,6.5,8.9z"/>
	</svg>

</svg>